<svg xmlns="http://www.w3.org/2000/svg" width="151.778" height="185.418" viewBox="0 0 151.778 185.418">
  <g id="グループ_11" data-name="グループ 11" transform="translate(-130.06 -74.1)">
    <path id="パス_3" data-name="パス 3" d="M210.656,136.094c-10.285-7.3-27.621-.541-38.722,15.1s-11.762,34.234-1.477,41.535" fill="none" stroke="#fff4db" stroke-miterlimit="10" stroke-width="13"/>
    <ellipse id="楕円形_22" data-name="楕円形 22" cx="32.608" cy="49.582" rx="32.608" ry="49.582" transform="translate(150.789 124.446) rotate(-39.18)" fill="none" stroke="#cbe8e7" stroke-miterlimit="10" stroke-width="13"/>
    <g id="グループ_10" data-name="グループ 10">
      <path id="パス_4" data-name="パス 4" d="M135.649,229.911c0-5.958,3.649-7.575,7.159-7.575a12.17,12.17,0,0,1,3.973.508,1.687,1.687,0,0,1,1.247,1.663,1.877,1.877,0,0,1-.185.877,1.916,1.916,0,0,1-1.755,1.386,2.3,2.3,0,0,1-.739-.138,6.377,6.377,0,0,0-2.541-.462c-1.709,0-3,.923-3,4.249v2.818h5.543c1.154,0,1.709.785,1.709,1.894a1.59,1.59,0,0,1-1.709,1.754h-5.543v20.37c0,1.247-.877,1.847-2.078,1.847-1.247,0-2.079-.6-2.079-1.847v-20.37h-3.926a1.557,1.557,0,0,1-1.663-1.754c0-1.063.509-1.894,1.663-1.894h3.926Z" fill="#fff"/>
      <path id="パス_5" data-name="パス 5" d="M153.986,234.761c0-1.2.878-1.8,2.171-1.8,1.155,0,2.079.6,2.079,1.8v1.016a20.045,20.045,0,0,1-.277,2.171,8.67,8.67,0,0,1,8.082-5.266,8.131,8.131,0,0,1,1.848.231,1.523,1.523,0,0,1,1.478,1.663,5.184,5.184,0,0,1-.092.786,1.975,1.975,0,0,1-1.8,1.8,1.263,1.263,0,0,1-.416-.047,9.335,9.335,0,0,0-2.216-.276,5.987,5.987,0,0,0-4.665,2.54,8.287,8.287,0,0,0-1.94,5.127v12.748a1.836,1.836,0,0,1-2.079,1.847c-1.293,0-2.171-.6-2.171-1.847Z" fill="#fff"/>
      <path id="パス_6" data-name="パス 6" d="M180.822,225.615a3.118,3.118,0,1,1-3.1-3.094A3.077,3.077,0,0,1,180.822,225.615Zm-5.219,9.146c0-1.2.785-1.8,2.078-1.8,1.248,0,2.125.6,2.125,1.8v22.494c0,1.247-.877,1.847-2.125,1.847-1.293,0-2.078-.6-2.078-1.847Z" fill="#fff"/>
      <path id="パス_7" data-name="パス 7" d="M222.807,257.255c0,1.247-.923,1.847-2.124,1.847-1.294,0-2.079-.6-2.079-1.847V242.474c0-3.926-1.108-6.143-4.434-6.143A6.159,6.159,0,0,0,209,239.472a8.153,8.153,0,0,0-1.247,4.157v13.626c0,1.247-.877,1.847-2.078,1.847-1.294,0-2.079-.6-2.079-1.847V242.474c0-3.926-1.155-6.143-4.434-6.143-2.448,0-3.926,1.432-5.034,3.1a8.237,8.237,0,0,0-1.247,4.434v13.4c0,1.247-.832,1.847-2.033,1.847-1.293,0-2.125-.6-2.125-1.847V234.761c0-1.2.878-1.8,2.171-1.8a1.751,1.751,0,0,1,1.987,1.8v.97a13.49,13.49,0,0,1-.324,2.217c1.155-2.725,3.1-5.312,7.621-5.312,4.065,0,6.282,1.848,6.882,5.035,1.34-2.4,3-5.035,8.129-5.035,5.451,0,7.621,3.28,7.621,8.914Z" fill="#fff"/>
      <path id="パス_8" data-name="パス 8" d="M234.449,246.816c.092,5.681,2.909,9.238,7.9,9.238a6.358,6.358,0,0,0,6.282-4.111,1.815,1.815,0,0,1,1.663-1.155,3.613,3.613,0,0,1,.97.185,1.761,1.761,0,0,1,1.432,1.617,1.43,1.43,0,0,1-.231.831c-1.478,3.048-4.157,6.1-10.161,6.1-7.576,0-11.963-5.358-11.963-13.349s4.156-13.579,11.685-13.579c6.744,0,10.531,5.266,10.993,11.316v.37c0,1.663-.878,2.54-2.309,2.54Zm13.671-3.372c.508,0,.693-.185.693-.6v-.231c-.554-3.279-2.54-6.651-6.79-6.651-4.434,0-6.836,2.956-7.436,7.482Z" fill="#fff"/>
      <path id="パス_9" data-name="パス 9" d="M263.271,246.816c.092,5.681,2.909,9.238,7.9,9.238a6.357,6.357,0,0,0,6.281-4.111,1.816,1.816,0,0,1,1.663-1.155,3.613,3.613,0,0,1,.97.185,1.761,1.761,0,0,1,1.432,1.617,1.422,1.422,0,0,1-.231.831c-1.478,3.048-4.157,6.1-10.161,6.1-7.575,0-11.963-5.358-11.963-13.349s4.157-13.579,11.685-13.579c6.744,0,10.531,5.266,10.993,11.316v.37c0,1.663-.877,2.54-2.309,2.54Zm13.671-3.372c.508,0,.693-.185.693-.6v-.231c-.554-3.279-2.54-6.651-6.79-6.651-4.434,0-6.835,2.956-7.436,7.482Z" fill="#fff"/>
    </g>
    <path id="パス_10" data-name="パス 10" d="M170.457,192.726c10.285,7.3,27.621.541,38.721-15.1s11.762-34.234,1.478-41.534" fill="none" stroke="#fff4db" stroke-miterlimit="10" stroke-width="13"/>
  </g>
</svg>
