<svg xmlns="http://www.w3.org/2000/svg" width="120" height="120" viewBox="0 0 120 120">
  <g id="グループ_13" data-name="グループ 13" transform="translate(-147 -174)">
    <circle id="楕円形_1" data-name="楕円形 1" cx="60" cy="60" r="60" transform="translate(147 174)" fill="#c3baba"/>
    <path id="Icon_awesome-user" data-name="Icon awesome-user" d="M29.5,33.5A16.75,16.75,0,1,0,12.643,16.75,16.8,16.8,0,0,0,29.5,33.5Zm11.8,4.188H39.1a23.058,23.058,0,0,1-19.2,0H17.7A17.649,17.649,0,0,0,0,55.275v5.444A6.3,6.3,0,0,0,6.321,67H52.679A6.3,6.3,0,0,0,59,60.719V55.275A17.649,17.649,0,0,0,41.3,37.688Z" transform="translate(178 201)" fill="#fff"/>
  </g>
</svg>
