<svg xmlns="http://www.w3.org/2000/svg" width="11" height="13" viewBox="0 0 11 13">
  <path id="Icon_awesome-birthday-cake" data-name="Icon awesome-birthday-cake" d="M11,9.75c-.688,0-.768-.812-1.829-.812s-1.15.812-1.835.812S6.563,8.938,5.5,8.938s-1.159.812-1.829.812c-.691,0-.766-.812-1.835-.812S.69,9.75,0,9.75V7.719A1.2,1.2,0,0,1,1.179,6.5h.393V2.844H3.143V6.5H4.714V2.844H6.286V6.5H7.857V2.844H9.429V6.5h.393A1.2,1.2,0,0,1,11,7.719ZM11,13H0V10.563c1.065,0,1.148-.813,1.835-.813s.767.813,1.835.813c1.052,0,1.159-.813,1.829-.813.691,0,.766.813,1.835.813S8.484,9.75,9.171,9.75s.767.813,1.829.813ZM2.357,2.437a.8.8,0,0,1-.786-.812c0-.787.786-.584.786-1.625.295,0,.786.749.786,1.422S2.793,2.437,2.357,2.437Zm3.143,0a.8.8,0,0,1-.786-.812C4.714.838,5.5,1.041,5.5,0c.295,0,.786.749.786,1.422S5.936,2.437,5.5,2.437Zm3.143,0a.8.8,0,0,1-.786-.812c0-.787.786-.584.786-1.625.295,0,.786.749.786,1.422S9.079,2.437,8.643,2.437Z" fill="#ffd136"/>
</svg>
