<svg xmlns="http://www.w3.org/2000/svg" width="22" height="23" viewBox="0 0 22 23">
  <path id="Icon_ionic-ios-search" data-name="Icon ionic-ios-search" d="M26.242,25.828l-6.119-6.455a9.406,9.406,0,0,0,1.919-5.719,8.971,8.971,0,0,0-8.771-9.162A8.976,8.976,0,0,0,4.5,13.661a8.971,8.971,0,0,0,8.771,9.162A8.511,8.511,0,0,0,18.8,20.774l6.079,6.413a.918.918,0,0,0,.682.305.907.907,0,0,0,.647-.269A1.023,1.023,0,0,0,26.242,25.828ZM13.271,20.852A6.7,6.7,0,0,1,8.4,18.744a7.416,7.416,0,0,1,0-10.168,6.679,6.679,0,0,1,9.739,0,7.416,7.416,0,0,1,0,10.168A6.7,6.7,0,0,1,13.271,20.852Z" transform="translate(-4.5 -4.493)" fill="#40cbc9"/>
</svg>
